/* XPM */
static char * circle_icon_xpm[] = {
"32 32 18 1",
" 	c None",
".	c #191919",
"+	c #4C4C4C",
"@	c #333333",
"#	c #7F7F00",
"$	c #000000",
"%	c #7F7F7F",
"&	c #E5E5E5",
"*	c #B2B2B2",
"=	c #666667",
"-	c #CCCCCC",
";	c #999999",
">	c #FFFF00",
",	c #7F0000",
"'	c #FF0000",
")	c #7F007F",
"!	c #007F00",
"~	c #007F7F",
"                                ",
"          .+@.     .+#+         ",
"         $%&*%. $ .%&&*=        ",
"         @--;>=,+#%&&''=        ",
"         +'','*>*>--'','.       ",
"     .+=)#',''%*;*&'',',,       ",
"    .>&--*;'*;'&*>-;;*''.       ",
"    %&--->----&&----->-;.       ",
"    *&**-*-&&&&&&>----*;$       ",
"    +*#;%#*&&-->**---*>%.       ",
"    $@++=+#-;=+%;*;#,@=;@       ",
"     .=#=#;;,..+*-;+$.%%.       ",
"      %*%%***##*&-*;#*-%.       ",
"      %**'***-&&->>*-*;#$       ",
"      %-*;%*;;;-;%%;%%=@        ",
"      =&*>#;#=,##'=+%)#%.       ",
"      %-*;*''=+==+=+#=;*,       ",
"      =-*>*#,,',',,,,%**=       ",
"      =-*;;*=!.,'''~.%--#       ",
"      @;;%;;!+!~%'#~#;->%       ",
"       @#%%;!!+@@,.!%-**+       ",
"       +&--*=!!@!.+;--*;=.      ",
"       %&&--*#..@%;->**;;.      ",
"       =&&->*;=%=###%;%;%.      ",
"       =-->*;#*>,@+.@+=%=.      ",
"       @;;;;;%%,..,$.,=#,       ",
"       @*;;#'#,.$....+**+       ",
"       $*&---#@.$$$$,%-*+       ",
"        %&--*+.$$$$$.==,.       ",
"        .%#)#,$$$..$$...        ",
"           .$ .$$$$ $$          ",
"                                "};
